HIERARCHY
ROOT Hips
{
	OFFSET 0.000000 83.214638 0.000000
	CHANNELS 6 Xposition Yposition Zposition Xrotation Yrotation Zrotation
	JOINT Pelvis
	{
		OFFSET 0.000000 0.000000 0.000000
		CHANNELS 3 Xrotation Yrotation Zrotation
		JOINT LeftUpLeg
		{
			OFFSET 8.479700 -4.795502 -0.379100
			CHANNELS 3 Xrotation Yrotation Zrotation
			JOINT LeftLeg
			{
				OFFSET 0.024144 -32.555107 0.112900
				CHANNELS 3 Xrotation Yrotation Zrotation
				JOINT LeftFoot
				{
					OFFSET -0.024144 -32.638630 -3.012600
					CHANNELS 3 Xrotation Yrotation Zrotation
					JOINT LeftToeBase
					{
						OFFSET 0.970200 -13.225400 11.864200
						CHANNELS 3 Xrotation Yrotation Zrotation
						End Site
						{
							OFFSET 0.000000 12.319262 0.000000
						}
					}
					JOINT LFootTongue
					{
						OFFSET 1.142400 -1.059800 6.665200
						CHANNELS 3 Xrotation Yrotation Zrotation
						End Site
						{
							OFFSET 0.000000 12.319262 0.000000
						}
					}
				}
				JOINT LeftPantLeg
				{
					OFFSET 0.918482 -16.533964 -2.284700
					CHANNELS 3 Xrotation Yrotation Zrotation
					End Site
					{
						OFFSET 0.350399 24.744368 0.000000
					}
				}
			}
		}
		JOINT RightUpLeg
		{
			OFFSET -8.479700 -4.795502 -0.379100
			CHANNELS 3 Xrotation Yrotation Zrotation
			JOINT RightLeg
			{
				OFFSET -0.023144 -32.555092 0.112900
				CHANNELS 3 Xrotation Yrotation Zrotation
				JOINT RightFoot
				{
					OFFSET 0.023144 -32.638641 -3.012700
					CHANNELS 3 Xrotation Yrotation Zrotation
					JOINT RightToeBase
					{
						OFFSET -0.970200 -13.225400 11.864200
						CHANNELS 3 Xrotation Yrotation Zrotation
						End Site
						{
							OFFSET 0.000000 12.319244 0.000000
						}
					}
					JOINT RFootTongue
					{
						OFFSET -1.142200 -1.059800 6.665200
						CHANNELS 3 Xrotation Yrotation Zrotation
						End Site
						{
							OFFSET 0.000000 12.319243 0.000000
						}
					}
				}
				JOINT RightPantLeg
				{
					OFFSET -0.919482 -16.533978 -2.284800
					CHANNELS 3 Xrotation Yrotation Zrotation
					End Site
					{
						OFFSET -0.350400 24.744419 0.000000
					}
				}
			}
		}
	}
	JOINT Spine
	{
		OFFSET 0.000000 7.722000 1.166200
		CHANNELS 3 Xrotation Yrotation Zrotation
		JOINT Spine1
		{
			OFFSET 0.000000 12.024101 0.248800
			CHANNELS 3 Xrotation Yrotation Zrotation
			JOINT Spine2
			{
				OFFSET 0.000000 11.502998 -0.491200
				CHANNELS 3 Xrotation Yrotation Zrotation
				JOINT Neck
				{
					OFFSET 0.000000 18.430702 -3.123100
					CHANNELS 3 Xrotation Yrotation Zrotation
					JOINT Head
					{
						OFFSET 0.000000 9.051102 1.034000
						CHANNELS 3 Xrotation Yrotation Zrotation
						JOINT HairB
						{
							OFFSET 0.208400 24.786102 24.822300
							CHANNELS 3 Xrotation Yrotation Zrotation
							End Site
							{
								OFFSET 0.000000 32.263779 0.000000
							}
						}
						JOINT HairA
						{
							OFFSET -7.081100 24.428299 23.196600
							CHANNELS 3 Xrotation Yrotation Zrotation
							End Site
							{
								OFFSET 0.000000 32.263779 0.000000
							}
						}
						JOINT Hat
						{
							OFFSET 16.728800 15.048294 -15.439601
							CHANNELS 3 Xrotation Yrotation Zrotation
							End Site
							{
								OFFSET 0.000000 32.263779 0.000000
							}
						}
					}
				}
				JOINT LeftShoulder
				{
					OFFSET 6.197800 13.665199 -4.064700
					CHANNELS 3 Xrotation Yrotation Zrotation
					JOINT LeftArm
					{
						OFFSET 7.778100 -0.187103 -1.709300
						CHANNELS 3 Xrotation Yrotation Zrotation
						JOINT LeftForeArm
						{
							OFFSET 22.049376 0.000000 0.000000
							CHANNELS 3 Xrotation Yrotation Zrotation
							JOINT LeftHand
							{
								OFFSET 23.009392 0.000000 0.000000
								CHANNELS 3 Xrotation Yrotation Zrotation
								JOINT LeftHandThumb1
								{
									OFFSET 3.507191 -2.063065 3.133727
									CHANNELS 3 Xrotation Yrotation Zrotation
									JOINT LeftHandThumb2
									{
										OFFSET 3.101337 -1.790558 1.790558
										CHANNELS 3 Xrotation Yrotation Zrotation
										JOINT LeftHandThumb3
										{
											OFFSET 3.058640 -1.765907 1.765906
											CHANNELS 3 Xrotation Yrotation Zrotation
											End Site
											{
												OFFSET -0.415260 3.926476 -0.049563
											}
										}
									}
								}
								JOINT LeftHandIndex1
								{
									OFFSET 11.334419 -0.901459 3.706815
									CHANNELS 3 Xrotation Yrotation Zrotation
									JOINT LeftHandIndex2
									{
										OFFSET 3.283112 0.000000 0.000000
										CHANNELS 3 Xrotation Yrotation Zrotation
										JOINT LeftHandIndex3
										{
											OFFSET 3.323853 0.000000 0.000000
											CHANNELS 3 Xrotation Yrotation Zrotation
											End Site
											{
												OFFSET -1.135597 3.097809 0.402452
											}
										}
									}
								}
								JOINT LeftHandMiddle1
								{
									OFFSET 11.335861 0.000000 0.000000
									CHANNELS 3 Xrotation Yrotation Zrotation
									JOINT LeftHandMiddle2
									{
										OFFSET 3.410492 0.000000 0.000000
										CHANNELS 3 Xrotation Yrotation Zrotation
										JOINT LeftHandMiddle3
										{
											OFFSET 3.312172 0.000000 0.000000
											CHANNELS 3 Xrotation Yrotation Zrotation
											End Site
											{
												OFFSET -1.150200 3.080154 0.400270
											}
										}
									}
								}
								JOINT LeftHandRing1
								{
									OFFSET 11.514786 -0.013176 -3.003090
									CHANNELS 3 Xrotation Yrotation Zrotation
									JOINT LeftHandRing2
									{
										OFFSET 3.053307 0.000000 0.000000
										CHANNELS 3 Xrotation Yrotation Zrotation
										JOINT LeftHandRing3
										{
											OFFSET 3.295807 0.000000 0.000000
											CHANNELS 3 Xrotation Yrotation Zrotation
											End Site
											{
												OFFSET -1.281006 3.013344 0.375733
											}
										}
									}
								}
								JOINT LeftHandPinky1
								{
									OFFSET 10.518692 -0.960396 -5.730441
									CHANNELS 3 Xrotation Yrotation Zrotation
									JOINT LeftHandPinky2
									{
										OFFSET 2.861649 0.000000 0.000000
										CHANNELS 3 Xrotation Yrotation Zrotation
										JOINT LeftHandPinky3
										{
											OFFSET 2.863380 0.000000 0.000000
											CHANNELS 3 Xrotation Yrotation Zrotation
											End Site
											{
												OFFSET -0.843597 2.711159 0.369971
											}
										}
									}
								}
							}
							JOINT LSleeve
							{
								OFFSET 6.676277 -0.344902 -1.011730
								CHANNELS 3 Xrotation Yrotation Zrotation
								End Site
								{
									OFFSET 0.000000 14.885353 0.000000
								}
							}
						}
					}
				}
				JOINT RightShoulder
				{
					OFFSET -6.197800 13.665199 -4.064700
					CHANNELS 3 Xrotation Yrotation Zrotation
					JOINT RightArm
					{
						OFFSET -7.778100 -0.187103 -1.709300
						CHANNELS 3 Xrotation Yrotation Zrotation
						JOINT RightForeArm
						{
							OFFSET -22.049376 0.000000 0.000000
							CHANNELS 3 Xrotation Yrotation Zrotation
							JOINT RightHand
							{
								OFFSET -23.009392 0.000000 0.000000
								CHANNELS 3 Xrotation Yrotation Zrotation
								JOINT RightHandThumb1
								{
									OFFSET -3.507191 -2.063065 3.133727
									CHANNELS 3 Xrotation Yrotation Zrotation
									JOINT RightHandThumb2
									{
										OFFSET -3.101337 -1.790558 1.790558
										CHANNELS 3 Xrotation Yrotation Zrotation
										JOINT RightHandThumb3
										{
											OFFSET -3.058640 -1.765907 1.765906
											CHANNELS 3 Xrotation Yrotation Zrotation
											End Site
											{
												OFFSET 0.415260 3.926476 -0.049563
											}
										}
									}
								}
								JOINT RightHandIndex1
								{
									OFFSET -11.334419 -0.901459 3.706815
									CHANNELS 3 Xrotation Yrotation Zrotation
									JOINT RightHandIndex2
									{
										OFFSET -3.283112 0.000000 0.000000
										CHANNELS 3 Xrotation Yrotation Zrotation
										JOINT RightHandIndex3
										{
											OFFSET -3.323853 0.000000 0.000000
											CHANNELS 3 Xrotation Yrotation Zrotation
											End Site
											{
												OFFSET 1.135597 3.097809 0.402452
											}
										}
									}
								}
								JOINT RightHandMiddle1
								{
									OFFSET -11.335861 0.000000 0.000000
									CHANNELS 3 Xrotation Yrotation Zrotation
									JOINT RightHandMiddle2
									{
										OFFSET -3.410492 0.000000 0.000000
										CHANNELS 3 Xrotation Yrotation Zrotation
										JOINT RightHandMiddle3
										{
											OFFSET -3.312172 0.000000 0.000000
											CHANNELS 3 Xrotation Yrotation Zrotation
											End Site
											{
												OFFSET 1.150200 3.080154 0.400270
											}
										}
									}
								}
								JOINT RightHandRing1
								{
									OFFSET -11.514786 -0.013176 -3.003090
									CHANNELS 3 Xrotation Yrotation Zrotation
									JOINT RightHandRing2
									{
										OFFSET -3.053307 0.000000 0.000000
										CHANNELS 3 Xrotation Yrotation Zrotation
										JOINT RightHandRing3
										{
											OFFSET -3.295807 0.000000 0.000000
											CHANNELS 3 Xrotation Yrotation Zrotation
											End Site
											{
												OFFSET 1.281006 3.013344 0.375733
											}
										}
									}
								}
								JOINT RightHandPinky1
								{
									OFFSET -10.518692 -0.960396 -5.730441
									CHANNELS 3 Xrotation Yrotation Zrotation
									JOINT RightHandPinky2
									{
										OFFSET -2.861649 0.000000 0.000000
										CHANNELS 3 Xrotation Yrotation Zrotation
										JOINT RightHandPinky3
										{
											OFFSET -2.863380 0.000000 0.000000
											CHANNELS 3 Xrotation Yrotation Zrotation
											End Site
											{
												OFFSET 0.843597 2.711159 0.369971
											}
										}
									}
								}
							}
							JOINT RSleeve
							{
								OFFSET -6.676277 -0.344902 -1.011730
								CHANNELS 3 Xrotation Yrotation Zrotation
								End Site
								{
									OFFSET 0.000000 14.885353 0.000000
								}
							}
						}
					}
				}
				JOINT Backpack
				{
					OFFSET 0.000000 -2.471497 36.677502
					CHANNELS 3 Xrotation Yrotation Zrotation
					End Site
					{
						OFFSET 0.000000 20.427315 0.000000
					}
				}
				JOINT Hood
				{
					OFFSET 0.000000 18.754097 -10.431000
					CHANNELS 3 Xrotation Yrotation Zrotation
					JOINT Hood1
					{
						OFFSET 0.000000 -5.011002 -7.685901
						CHANNELS 3 Xrotation Yrotation Zrotation
						End Site
						{
							OFFSET 0.000000 9.175140 0.000000
						}
					}
				}
				JOINT LHoodieString
				{
					OFFSET 5.250500 16.397697 3.089900
					CHANNELS 3 Xrotation Yrotation Zrotation
					JOINT LHoodieString1
					{
						OFFSET 0.257700 -6.364304 3.694600
						CHANNELS 3 Xrotation Yrotation Zrotation
						JOINT LHoodieString2
						{
							OFFSET 0.000000 -9.643799 2.679100
							CHANNELS 3 Xrotation Yrotation Zrotation
							End Site
							{
								OFFSET 0.000000 10.009018 0.000000
							}
						}
					}
				}
				JOINT RHoodieString
				{
					OFFSET -5.250500 16.397697 3.089900
					CHANNELS 3 Xrotation Yrotation Zrotation
					JOINT RHoodieString1
					{
						OFFSET -0.257700 -6.364304 3.694600
						CHANNELS 3 Xrotation Yrotation Zrotation
						JOINT RHoodieString2
						{
							OFFSET 0.000000 -9.643799 2.679100
							CHANNELS 3 Xrotation Yrotation Zrotation
							End Site
							{
								OFFSET 0.000000 10.009018 0.000000
							}
						}
					}
				}
			}
			JOINT LBackpack_Strap
			{
				OFFSET 15.223200 -7.719803 -6.610900
				CHANNELS 3 Xrotation Yrotation Zrotation
				End Site
				{
					OFFSET 0.000000 16.040596 0.000000
				}
			}
			JOINT RBackpack_Strap
			{
				OFFSET -15.223000 -7.719803 -6.610900
				CHANNELS 3 Xrotation Yrotation Zrotation
				End Site
				{
					OFFSET 0.000000 16.040596 0.000000
				}
			}
		}
	}
	JOINT BoyFacialAnim_Joint
	{
		OFFSET 1.000000 -82.208099 -1.550900
		CHANNELS 3 Xrotation Yrotation Zrotation
		End Site
		{
			OFFSET 0.000000 30.012791 0.000000
		}
	}
}
MOTION
Frames: 4
Frame Time: 0.016667
-0.422245 55.958183 4.942001 38.755508 -53.658837 31.006614 -0.000000 0.000001 -0.000000 -81.194775 -7.880680 27.510535 95.231921 -11.920568 1.084873 -33.480566 0.963986 -12.758235 -0.000000 0.000000 -0.000000 -0.000000 0.000000 -0.000000 0.000001 0.000000 -0.000002 -83.076055 -3.940038 -32.393415 97.518839 6.491381 0.997862 -34.479744 -1.846316 8.942646 -0.000000 0.000000 0.000000 -0.000000 0.000000 0.000000 0.000004 -0.000000 0.000000 8.240599 -2.045703 -2.697942 3.591992 -3.361489 -2.519244 3.576404 -3.306028 -2.583291 -4.843167 17.213118 -6.645896 -39.838697 36.524375 9.074935 -0.000000 0.000000 0.000000 -0.000000 0.000000 0.000000 -0.000000 0.000000 0.000000 5.547262 -8.009817 -6.640979 -64.034273 1.869218 -22.502845 21.515680 -29.366794 16.956532 -2.616375 -8.068142 2.194879 40.109941 -15.297150 -0.360506 5.639835 28.097916 11.338832 -0.000001 -0.000001 0.000000 6.880128 2.821209 -61.138608 8.248002 7.640068 -89.897878 0.000002 -0.000001 -0.000002 -2.344778 4.689018 -62.667880 8.755247 9.896957 -87.054688 0.000001 0.000001 -0.000001 -9.042441 10.045687 -60.766171 8.524163 9.509025 -66.902564 -0.000001 0.000001 -0.000002 -17.946886 14.754996 -51.485833 8.862294 8.673552 -84.822391 -0.000000 0.000002 0.000000 -0.000001 -0.000001 -0.000000 5.583198 9.006411 15.903913 -10.769848 1.892026 48.290844 -18.711351 38.477242 8.552192 6.179192 2.978101 -16.977724 -6.830678 -6.304609 5.093498 1.899692 -22.662902 -8.729824 0.000001 0.000000 -0.000002 -0.976053 0.915616 -2.034108 0.028891 -0.078695 8.598515 0.000001 0.000001 0.000002 1.418790 -6.781368 2.948464 1.033161 -4.271100 20.381530 -0.000000 0.000001 0.000000 -5.862018 -13.951786 7.701493 1.592894 -4.798647 20.257219 -0.000001 -0.000001 0.000000 -5.934300 -14.361605 26.354229 2.930755 -2.669608 12.240929 -0.000001 -0.000002 -0.000002 -0.000000 0.000001 -0.000001 0.000001 0.000002 -0.000001 0.000001 0.000002 -0.000001 0.000001 0.000002 -0.000001 0.000001 0.000002 -0.000001 0.000001 0.000002 -0.000001 -0.000001 -0.000001 0.000003 0.000001 0.000002 -0.000001 0.000001 0.000002 -0.000001 -0.000001 -0.000001 0.000003 -0.000001 -0.000001 0.000001 -0.000001 -0.000001 0.000001 -0.000000 0.000001 -0.000000 
-0.225710 54.723495 4.546021 39.360027 -53.499048 31.363962 -0.000000 -0.000001 0.000001 -83.345595 -9.293830 27.964190 97.454396 -12.405703 1.044191 -33.603288 0.907261 -13.027112 0.000000 0.000000 -0.000000 0.000000 0.000000 -0.000000 0.000001 0.000002 0.000002 -85.514966 -3.442913 -32.829533 100.121626 7.100193 0.974838 -34.868587 -1.743375 8.318422 -0.000000 -0.000000 0.000000 -0.000000 -0.000000 0.000000 -0.000001 0.000000 0.000001 7.954973 -1.967993 -2.603542 3.758350 -3.279246 -2.496419 3.743206 -3.226208 -2.558059 -4.149934 17.553332 -7.160889 -39.823056 36.047184 8.584222 0.000000 -0.000000 0.000000 0.000000 -0.000000 0.000000 0.000000 -0.000000 0.000000 5.745030 -8.108519 -6.895807 -64.657030 0.940660 -22.490080 22.078520 -28.805677 16.993207 -2.188448 -8.346551 1.944080 40.109951 -15.297153 -0.360503 5.639835 28.097916 11.338830 0.000001 0.000001 -0.000000 6.879337 2.813776 -61.137877 8.248004 7.640065 -89.897878 -0.000000 -0.000000 -0.000005 -2.346724 4.689027 -62.672798 8.755131 9.896992 -87.054490 0.000000 0.000000 0.000002 -9.042447 10.045689 -60.766171 8.524220 9.509112 -66.906238 -0.000003 0.000001 0.000005 -17.946889 14.755000 -51.485843 8.862091 8.673830 -84.826660 -0.000002 0.000001 0.000002 0.000001 -0.000001 -0.000002 5.819242 9.101607 16.094139 -10.347739 2.384190 47.454437 -19.056462 39.289615 8.937033 5.144267 3.543864 -17.909688 -7.273785 -5.961027 4.974732 1.807467 -22.244866 -8.652305 -0.000000 -0.000001 -0.000001 -0.859999 0.831742 -2.769308 0.027982 -0.078732 7.696507 0.000000 0.000002 -0.000001 1.401304 -6.841172 1.747786 0.975751 -4.290826 19.317657 -0.000001 0.000003 -0.000001 -5.234639 -14.009315 5.961768 1.421467 -4.592397 19.068150 -0.000001 -0.000001 -0.000001 -6.123054 -14.120947 22.999692 2.904576 -2.693778 11.162810 -0.000003 0.000001 0.000000 -0.000002 -0.000002 0.000002 -0.000000 0.000001 0.000001 -0.000000 0.000001 0.000001 -0.000000 0.000001 0.000001 -0.000000 0.000001 0.000001 -0.000000 0.000001 0.000001 0.000002 0.000001 -0.000002 -0.000000 0.000001 0.000001 -0.000000 0.000001 0.000001 0.000002 0.000001 -0.000002 0.000001 -0.000000 0.000001 0.000001 -0.000000 0.000001 -0.000000 -0.000001 0.000001 
-0.032579 53.519188 4.167169 39.907597 -53.402152 31.735579 0.000001 0.000000 0.000000 -85.365248 -10.641694 28.407872 99.554563 -12.875949 1.004707 -33.664568 0.836125 -13.308752 0.000000 0.000002 -0.000000 0.000000 0.000002 -0.000000 0.000001 -0.000000 0.000002 -87.954525 -2.814282 -33.237026 102.632909 7.751057 0.930639 -34.823033 -1.676750 7.777457 -0.000000 -0.000000 -0.000000 -0.000000 -0.000000 -0.000000 -0.000003 0.000001 -0.000000 7.660259 -1.882583 -2.524877 3.920447 -3.180471 -2.492624 3.905905 -3.129785 -2.551261 -3.463308 17.929192 -7.697897 -39.698128 35.578602 8.116831 0.000000 0.000000 0.000000 0.000000 0.000000 0.000000 0.000000 0.000000 0.000000 5.951873 -8.061986 -6.968065 -65.208574 0.226342 -22.718881 22.758008 -28.220335 17.107337 -1.837091 -8.526895 1.949934 40.109951 -15.297158 -0.360502 5.639837 28.097916 11.338837 0.000003 -0.000001 0.000000 6.878504 2.806593 -61.137174 8.248002 7.640063 -89.897878 -0.000002 -0.000000 -0.000002 -2.348138 4.689104 -62.677648 8.755070 9.896948 -87.054326 -0.000002 -0.000001 -0.000000 -9.042440 10.045687 -60.766164 8.524216 9.509185 -66.909865 0.000002 0.000001 -0.000000 -17.946889 14.754995 -51.485840 8.861919 8.674137 -84.830813 -0.000000 0.000001 0.000002 -0.000000 0.000000 0.000001 6.023409 9.139926 16.277662 -9.808078 2.868996 46.606356 -19.217634 39.891395 9.114116 4.158433 3.984965 -18.528406 -7.704056 -5.623307 4.866726 1.718631 -21.838316 -8.576002 -0.000000 -0.000002 0.000000 -0.751782 0.746890 -3.402896 0.027159 -0.078815 6.886451 -0.000001 0.000003 0.000002 1.379470 -6.896990 0.604305 0.922499 -4.308987 18.305587 0.000003 -0.000000 -0.000000 -4.598564 -14.115963 4.200503 1.257780 -4.370512 17.870676 -0.000001 -0.000001 0.000000 -6.286743 -13.898206 19.326223 2.878216 -2.716621 9.974112 -0.000000 0.000001 -0.000001 0.000000 -0.000001 -0.000004 -0.000000 0.000000 -0.000001 -0.000000 0.000000 -0.000001 -0.000000 0.000000 -0.000001 -0.000000 0.000000 -0.000001 -0.000000 0.000000 -0.000001 -0.000000 0.000000 -0.000001 -0.000000 0.000000 -0.000001 -0.000000 0.000000 -0.000001 -0.000000 0.000000 -0.000001 -0.000001 0.000000 0.000001 -0.000001 0.000000 0.000001 0.000001 0.000000 0.000000 
0.158430 52.331833 3.792543 40.449012 -53.332217 32.113678 0.000000 -0.000000 -0.000000 -87.336796 -11.998163 28.855978 101.556724 -13.352549 0.965303 -33.645669 0.748364 -13.607752 -0.000000 0.000002 0.000000 -0.000000 0.000002 0.000000 -0.000003 -0.000002 -0.000001 -90.428003 -2.134614 -33.454041 105.117656 8.126668 0.845756 -34.611273 -1.571047 7.151539 0.000000 0.000000 0.000000 0.000000 0.000000 0.000000 -0.000004 0.000000 -0.000000 7.361333 -1.792070 -2.449628 4.076462 -3.077120 -2.496174 4.062612 -3.028791 -2.551575 -2.778655 18.321573 -8.229666 -39.519311 35.119262 7.656162 0.000000 0.000000 -0.000000 0.000000 0.000000 -0.000000 0.000000 0.000000 -0.000000 6.122407 -8.035490 -6.996220 -65.715839 -0.382973 -22.932777 23.412084 -27.614424 17.207446 -1.507597 -8.661017 1.990320 40.109948 -15.297153 -0.360499 5.639836 28.097916 11.338833 -0.000001 0.000000 -0.000000 6.877770 2.799591 -61.136463 8.248003 7.640066 -89.897878 -0.000001 -0.000001 -0.000004 -2.348833 4.689102 -62.682374 8.755006 9.896973 -87.054039 0.000002 -0.000000 0.000000 -9.042443 10.045685 -60.766164 8.524199 9.509263 -66.913717 -0.000001 0.000003 0.000000 -17.946884 14.754996 -51.485836 8.861684 8.674434 -84.834945 -0.000001 -0.000000 0.000001 0.000001 0.000001 -0.000002 6.224897 9.159323 16.434210 -9.202607 3.322512 45.736757 -19.298986 40.213900 9.212686 3.214243 4.447920 -18.922696 -8.110751 -5.297895 4.771009 1.635692 -21.450141 -8.501628 -0.000003 -0.000000 0.000003 -0.653793 0.663549 -3.905961 0.026730 -0.078764 6.195275 -0.000000 0.000002 0.000000 1.354093 -6.946221 -0.446392 0.875432 -4.325243 17.387382 0.000002 -0.000000 -0.000000 -3.971843 -14.268024 2.470777 1.106190 -4.136319 16.709325 0.000001 -0.000000 0.000004 -6.424682 -13.717936 15.482273 2.853915 -2.736951 8.736588 0.000001 -0.000004 0.000001 -0.000000 0.000000 -0.000002 0.000001 0.000001 -0.000000 0.000001 0.000001 -0.000000 0.000001 0.000001 -0.000000 0.000001 0.000001 -0.000000 0.000001 0.000001 -0.000000 0.000000 -0.000002 0.000003 0.000001 0.000001 -0.000000 0.000001 0.000001 -0.000000 0.000000 -0.000002 0.000003 -0.000002 0.000000 -0.000002 -0.000002 0.000000 -0.000002 0.000000 -0.000000 -0.000000 
